<svg width="179" height="92" viewBox="0 0 179 92" fill="none" xmlns="http://www.w3.org/2000/svg">
  <path fill-rule="evenodd" clip-rule="evenodd" d="M38.7264 37.5667C42.1109 37.5667 44.7982 36.8449 46.7881 35.4013C47.7703 34.7054 48.554 33.8124 49.0755 32.7951C49.597 31.7779 49.8414 30.6651 49.7888 29.5476V29.4079C49.7888 26.8094 48.8173 24.8256 46.8665 23.4844C44.9157 22.1432 42.1657 21.4587 38.648 21.4587H24.914V61.6518H15.5752V13.8867H39.455C42.498 13.8296 45.5287 14.2481 48.4099 15.1231C50.8325 15.8596 53.0499 17.0506 54.9126 18.6157C56.3403 19.9275 57.4591 21.4808 58.2031 23.1841C58.9913 25.0133 59.3821 26.9595 59.3548 28.9189V29.0936C59.3829 30.8946 59.0595 32.6862 58.399 34.3884C57.7971 35.911 56.9038 37.329 55.7587 38.5795C54.6206 39.7967 53.2622 40.8356 51.7396 41.6531C50.1267 42.5151 48.3861 43.1711 46.5688 43.6019L66.2571 68.6231H171.212V6.94334H7.78758V68.5952H43.8737L49.2639 75.5385H0V0H179V75.5385H60.436L40.1758 49.4276L39.5333 48.6034L36.7364 45.006L30.8918 37.5667H38.7264Z" fill="currentColor"></path>
  <path fill-rule="evenodd" clip-rule="evenodd" d="M137.027 54.7644C138.705 54.7742 140.376 54.5671 141.987 54.1497C143.469 53.7572 144.883 53.1811 146.186 52.4383L136.996 45.453L143.044 39.313L152.258 46.8151C154.13 44.1402 155.079 41.0331 154.984 37.881V37.7413C154.993 35.5024 154.539 33.2812 153.645 31.1891C152.823 29.1917 151.56 27.3617 149.93 25.8078C148.3 24.2539 146.337 23.0077 144.157 22.1432C141.851 21.256 139.366 20.7983 136.855 20.7983C134.344 20.7983 131.859 21.256 129.553 22.1432C127.406 22.9921 125.475 24.2235 123.881 25.7616C122.278 27.3206 121.025 29.1394 120.191 31.1193C119.288 33.2093 118.834 35.4319 118.851 37.6715V37.9439C118.856 41.1614 118.154 44.3487 116.783 47.3251C115.441 50.2546 113.466 52.9201 110.97 55.1695C108.435 57.4464 105.432 59.2656 102.124 60.5272C98.5413 61.8755 94.6843 62.5485 90.7955 62.504C86.9078 62.539 83.0529 61.8663 79.4667 60.5272C76.1872 59.3152 73.2118 57.5318 70.7149 55.2817C68.2181 53.0315 66.2499 50.3597 64.9257 47.4229C63.5374 44.4047 62.8344 41.171 62.8574 37.909V37.7692C62.8353 34.505 63.5382 31.2692 64.9257 28.2484C66.2674 25.3188 68.2427 22.6533 70.739 20.4039C73.3824 18.0349 76.5337 16.1646 80.0051 14.9045C83.4764 13.6444 87.1968 13.0203 90.9444 13.0694C94.8291 13.0269 98.6831 13.6875 102.273 15.0113C105.573 16.2362 108.566 18.0337 111.079 20.2991L111.189 20.4039C109.503 22.3703 108.114 24.5264 107.06 26.8164C106.778 27.4381 106.512 28.0667 106.277 28.7024C105.604 27.6538 104.797 26.6786 103.871 25.7965C102.241 24.2518 100.284 23.0102 98.1131 22.1432C94.7385 20.7709 90.9656 20.3786 87.3274 21.0216C83.6891 21.6646 80.3694 23.3104 77.8371 25.7267C76.2341 27.2857 74.9814 29.1045 74.1471 31.0844C73.2444 33.1744 72.79 35.397 72.8073 37.6365V37.7692C72.7923 40.02 73.2465 42.2536 74.1471 44.3563C74.9685 46.3519 76.2307 48.1801 77.8591 49.7327C79.4875 51.2854 81.4488 52.5308 83.6269 53.3953C85.9313 54.2869 88.4166 54.7471 90.9287 54.7471C93.4408 54.7471 95.9261 54.2869 98.2306 53.3953C100.381 52.5472 102.314 51.3158 103.911 49.7769C105.51 48.2168 106.76 46.3982 107.593 44.4192C108.495 42.3314 108.949 40.1113 108.933 37.874V37.7343C108.91 34.4701 109.613 31.2342 111.001 28.2134C112.343 25.2839 114.318 22.6184 116.814 20.369C119.457 17.9987 122.608 16.1275 126.079 14.8673C129.551 13.6071 133.272 12.9838 137.02 13.0345C140.904 12.992 144.758 13.6526 148.348 14.9764C151.629 16.1927 154.603 17.9817 157.096 20.2382C159.589 22.4947 161.551 25.1731 162.866 28.1156C164.254 31.1362 164.957 34.3722 164.934 37.6365V37.7692C164.947 40.4237 164.481 43.0628 163.555 45.5857C162.643 48.0565 161.271 50.373 159.497 52.4383L165.624 57.0835L159.575 63.0838L153.151 57.9706C150.857 59.4221 148.326 60.5484 145.645 61.3095C139.031 63.0894 131.934 62.8136 125.518 60.5272C122.227 59.3007 119.242 57.5033 116.736 55.2394L116.618 55.1346C118.303 53.1696 119.691 51.0161 120.747 48.7291C121.037 48.1004 121.296 47.4718 121.531 46.8291C123.404 49.7406 126.273 52.0414 129.718 53.3953C132.015 54.3165 134.509 54.7836 137.027 54.7644Z" fill="currentColor"></path>
  <path fill-rule="evenodd" clip-rule="evenodd" d="M172.913 88.0771L168.674 82.3143H170.836L173.829 86.5054L176.845 82.3143H179L174.754 88.0352V91.8352H172.858L172.913 88.0771Z" fill="currentColor"></path>
  <path d="M154.883 91.9995C154.111 92.0073 153.344 91.879 152.627 91.6221C151.975 91.394 151.382 91.047 150.889 90.6032C150.395 90.1593 150.01 89.6285 149.76 89.0446C149.456 88.4224 149.291 87.7532 149.274 87.0747C149.269 86.4282 149.407 85.7872 149.682 85.1887C149.943 84.6025 150.331 84.0684 150.825 83.617C151.323 83.1587 151.92 82.7951 152.58 82.5483C153.28 82.2779 154.035 82.1422 154.798 82.1501C155.223 82.1491 155.647 82.1795 156.067 82.2409C156.431 82.2923 156.788 82.3766 157.132 82.4924C157.452 82.6023 157.761 82.7355 158.057 82.8905C158.354 83.055 158.637 83.2395 158.903 83.4424L157.712 84.7067C157.512 84.5565 157.303 84.4166 157.085 84.2876C156.872 84.1628 156.646 84.0553 156.411 83.9663C156.158 83.8763 155.896 83.8084 155.628 83.7637C155.323 83.7116 155.014 83.6859 154.703 83.6869C154.232 83.6851 153.766 83.7782 153.34 83.9593C152.923 84.136 152.55 84.3854 152.243 84.6927C151.924 85.0039 151.674 85.3667 151.507 85.7615C151.327 86.1733 151.237 86.6119 151.241 87.0538C151.231 87.5296 151.319 88.0029 151.499 88.4508C151.658 88.8512 151.909 89.2175 152.236 89.5265C152.574 89.8434 152.983 90.0936 153.436 90.2608C153.89 90.4281 154.378 90.5087 154.868 90.4975C155.35 90.5017 155.829 90.4357 156.286 90.3019C156.7 90.1819 157.089 90.0026 157.438 89.771V87.9828H154.758V86.5159H159.302V90.5184C159.025 90.727 158.732 90.9184 158.425 91.0912C158.095 91.2744 157.749 91.4332 157.391 91.5662C157.003 91.7041 156.602 91.8093 156.192 91.8806C155.762 91.9614 155.323 92.0012 154.883 91.9995Z" fill="currentColor"></path>
  <path fill-rule="evenodd" clip-rule="evenodd" d="M96.9898 91.9643C96.2163 91.974 95.4486 91.8433 94.7335 91.5802C94.0797 91.3385 93.4865 90.983 92.9887 90.5344C92.491 90.0858 92.0986 89.5532 91.8346 88.9677C91.5574 88.3649 91.4163 87.7192 91.4194 87.0677C91.4155 86.4184 91.5566 85.7748 91.8346 85.1747C92.3855 83.9878 93.4381 83.0418 94.7648 82.5412C95.4686 82.2764 96.2259 82.1432 96.9898 82.1501C97.7639 82.1428 98.5316 82.2759 99.2462 82.5412C99.9048 82.784 100.502 83.1427 101.001 83.596C101.492 84.044 101.881 84.5731 102.145 85.1537C102.42 85.7544 102.559 86.3979 102.552 87.0467C102.565 87.6925 102.433 88.3341 102.164 88.9338C101.895 89.5336 101.494 90.0794 100.985 90.5393C100.459 91.0122 99.8314 91.3854 99.1393 91.6362C98.4473 91.8871 97.7054 92.0106 96.9585 91.9993L96.9898 91.9643ZM96.9886 90.3804C96.4656 90.3869 95.9467 90.2986 95.4632 90.1207C95.0213 89.9573 94.6203 89.717 94.2838 89.4137C93.9473 89.1104 93.682 88.7504 93.5036 88.3546C93.3162 87.947 93.2208 87.5106 93.2229 87.0701C93.2202 86.6312 93.3156 86.1961 93.5036 85.7904C93.876 84.9881 94.5875 84.3486 95.4844 84.0102C95.9602 83.8311 96.4722 83.7411 96.9886 83.7457C97.5119 83.7408 98.0308 83.8308 98.5139 84.0102C98.9592 84.1743 99.3627 84.4168 99.7003 84.7232C100.032 85.0261 100.295 85.3838 100.474 85.7763C100.66 86.1823 100.753 86.6173 100.749 87.056C100.757 87.4926 100.668 87.9263 100.486 88.3317C100.304 88.7371 100.034 89.1061 99.6897 89.4171C99.3341 89.7367 98.9095 89.989 98.4417 90.1586C97.9739 90.3282 97.4724 90.4117 96.9674 90.404L96.9886 90.3804Z" fill="currentColor"></path>
  <path fill-rule="evenodd" clip-rule="evenodd" d="M134.34 91.9643C133.566 91.974 132.799 91.8433 132.083 91.5802C131.43 91.3385 130.836 90.983 130.339 90.5344C129.841 90.0858 129.449 89.5532 129.185 88.9677C128.907 88.3649 128.766 87.7192 128.769 87.0677C128.765 86.4184 128.907 85.7748 129.185 85.1747C129.735 83.9878 130.788 83.0418 132.115 82.5412C132.819 82.2764 133.576 82.1432 134.34 82.1501C135.114 82.1428 135.882 82.2759 136.596 82.5412C137.255 82.784 137.852 83.1427 138.351 83.596C138.842 84.044 139.231 84.5731 139.495 85.1537C139.77 85.7544 139.909 86.3979 139.902 87.0467C139.915 87.6925 139.783 88.3341 139.514 88.9338C139.245 89.5336 138.844 90.0794 138.335 90.5393C137.809 91.0122 137.181 91.3854 136.489 91.6362C135.797 91.8871 135.055 92.0106 134.308 91.9993L134.34 91.9643ZM134.339 90.3804C133.816 90.3869 133.297 90.2986 132.813 90.1207C132.371 89.9573 131.97 89.717 131.634 89.4137C131.297 89.1104 131.032 88.7504 130.854 88.3546C130.666 87.947 130.571 87.5106 130.573 87.0701C130.57 86.6312 130.666 86.1961 130.854 85.7904C131.226 84.9881 131.937 84.3486 132.834 84.0102C133.31 83.8311 133.822 83.7411 134.339 83.7457C134.862 83.7408 135.381 83.8308 135.864 84.0102C136.309 84.1743 136.713 84.4168 137.05 84.7232C137.382 85.0261 137.645 85.3838 137.824 85.7763C138.01 86.1823 138.103 86.6173 138.099 87.056C138.107 87.4926 138.018 87.9263 137.836 88.3317C137.654 88.7371 137.384 89.1061 137.04 89.4171C136.684 89.7367 136.259 89.989 135.792 90.1586C135.324 90.3282 134.822 90.4117 134.317 90.404L134.339 90.3804Z" fill="currentColor"></path>
  <path d="M113.781 82.3143H111.924V91.8352H119.398V90.3264H113.781V82.3143Z" fill="currentColor"></path>
  <path d="M80.1835 88.8944L74.48 82.3143H72.7328V91.8352H74.6053V85.0595L80.4813 91.8352H82.0482V82.3143H80.1835V88.8944Z" fill="currentColor"></path>
  <path d="M56.3807 82.3143H54.5161V91.8352H56.3729V87.8187H61.4967V91.8352H63.3613V82.3143H61.5045V86.2679H56.3807V82.3143Z" fill="currentColor"></path>
  <path d="M38.7465 91.6358C39.4201 91.8761 40.1416 91.9911 40.8668 91.9739L40.812 91.9669C41.2699 91.9724 41.7271 91.9326 42.1752 91.8482C42.5677 91.7777 42.9491 91.6651 43.3112 91.5129C43.652 91.3618 43.9771 91.1842 44.2827 90.982C44.5904 90.7701 44.8786 90.5365 45.1445 90.2835L43.938 89.1938C43.5201 89.5449 43.0542 89.8477 42.5513 90.0949C42.0322 90.3288 41.456 90.444 40.8747 90.4302C40.3862 90.4327 39.9027 90.3422 39.4566 90.1647C39.0352 89.9999 38.6545 89.7625 38.3363 89.4662C38.0179 89.1502 37.7705 88.7826 37.6076 88.3835C37.4339 87.9631 37.3463 87.5183 37.3491 87.0703C37.3462 86.6245 37.4338 86.182 37.6076 85.764C37.766 85.3708 38.0112 85.0099 38.3288 84.7028C38.6464 84.3956 39.0299 84.1484 39.4566 83.9758C39.9027 83.7983 40.3862 83.7078 40.8747 83.7103C41.4394 83.7031 41.9979 83.8157 42.5043 84.0387C43 84.2656 43.4564 84.5549 43.8596 84.8978L45.0662 83.6614C44.8231 83.4432 44.5612 83.2423 44.2827 83.0607C43.9901 82.8776 43.6778 82.7208 43.3504 82.5927C42.9961 82.4539 42.6256 82.3509 42.2457 82.2853C41.8074 82.2065 41.361 82.169 40.9138 82.1736C40.1473 82.1662 39.3873 82.2994 38.681 82.5648C38.0304 82.8122 37.441 83.1715 36.9462 83.6222C36.4515 84.0728 36.0613 84.606 35.7978 85.1912C35.5225 85.7967 35.384 86.4448 35.3905 87.0982C35.3834 87.7568 35.5246 88.41 35.8057 89.0191C36.0698 89.5997 36.4583 90.1288 36.9495 90.5768C37.4614 91.0353 38.0729 91.3956 38.7465 91.6358Z" fill="currentColor"></path>
  <path d="M25.9409 82.3179H18.0358V91.8318H26.0193V90.323H19.9005V87.7734H25.2515V86.2716H19.9005V83.8267H25.9409V82.3179Z" fill="currentColor"></path>
  <path d="M0 83.865H3.38454V91.8352H5.28051V83.865H8.66505V82.3143H0V83.865Z" fill="currentColor"></path>
</svg>