<svg width="240" height="240" viewBox="0 0 240 240" fill="none" xmlns="http://www.w3.org/2000/svg">
  <circle id="test" cx="120" cy="120" r="120" fill="#2FBDEA" fill-opacity="0.08"/>
  <path d="M141.333 98.6667H98.6666C95.7333 98.6667 93.3599 101.067 93.3599 104L93.3333 136C93.3333 138.933 95.7333 141.333 98.6666 141.333H141.333C144.267 141.333 146.667 138.933 146.667 136V104C146.667 101.067 144.267 98.6667 141.333 98.6667ZM141.333 109.333L120 122.667L98.6666 109.333V104L120 117.333L141.333 104V109.333Z" fill="#2FBDEA"/>
  <circle cx="147" cy="99" r="12" fill="white"/>
  <path d="M147 89C141.48 89 137 93.48 137 99C137 104.52 141.48 109 147 109C152.52 109 157 104.52 157 99C157 93.48 152.52 89 147 89ZM145 104L140 99L141.41 97.59L145 101.17L152.59 93.58L154 95L145 104Z" fill="#4CAF50"/>
</svg>