<svg width="128" height="37" viewBox="0 0 128 37" fill="none" xmlns="http://www.w3.org/2000/svg">
  <path fill-rule="evenodd" clip-rule="evenodd" d="M13.6717 15.429C14.8525 15.429 15.79 15.1466 16.4843 14.5817C16.8269 14.3094 17.1004 13.96 17.2823 13.5619C17.4642 13.1638 17.5495 12.7284 17.5312 12.2911V12.2365C17.5312 11.2197 17.1922 10.4434 16.5116 9.91857C15.831 9.39376 14.8716 9.12589 13.6443 9.12589H8.85274V24.8537H5.59457V6.16293H13.9259C14.9875 6.14061 16.0449 6.30435 17.0501 6.64673C17.8953 6.93495 18.6689 7.40098 19.3188 8.01342C19.8169 8.52672 20.2072 9.13453 20.4668 9.80104C20.7418 10.5168 20.8781 11.2784 20.8686 12.0451V12.1135C20.8784 12.8182 20.7656 13.5193 20.5351 14.1853C20.3251 14.7811 20.0135 15.336 19.614 15.8254C19.2169 16.3017 18.743 16.7082 18.2118 17.028C17.6491 17.3654 17.0418 17.6221 16.4078 17.7907L23.2767 27.5816H59.8939V3.44597H2.87761V27.5706H15.4675L17.348 30.2876H0.160645V0.729004H62.6109V30.2876H21.2458L14.1773 20.0703L13.9532 19.7477L12.9774 18.3401L10.9383 15.429H13.6717Z" fill="#334155"/>
  <path fill-rule="evenodd" clip-rule="evenodd" d="M47.9673 22.1586C48.5526 22.1624 49.1354 22.0814 49.6975 21.9181C50.2148 21.7645 50.7079 21.539 51.1626 21.2484L47.9563 18.515L50.0665 16.1124L53.2809 19.048C53.9342 18.0013 54.265 16.7855 54.2321 15.5521V15.4974C54.2353 14.6213 54.0768 13.7521 53.7647 12.9335C53.4782 12.1519 53.0375 11.4358 52.4689 10.8277C51.9003 10.2197 51.2153 9.73206 50.4546 9.39379C49.6502 9.0466 48.7833 8.86751 47.9071 8.86751C47.031 8.86751 46.1641 9.0466 45.3596 9.39379C44.6104 9.72596 43.937 10.2078 43.3807 10.8097C42.8214 11.4197 42.3844 12.1314 42.0933 12.9062C41.7784 13.724 41.6198 14.5937 41.6259 15.47V15.5767C41.6277 16.8357 41.3825 18.0829 40.9043 19.2476C40.4362 20.3939 39.747 21.4369 38.8761 22.3171C37.992 23.2081 36.9442 23.9199 35.7901 24.4136C34.5401 24.9412 33.1944 25.2046 31.8377 25.1872C30.4813 25.2008 29.1364 24.9376 27.8853 24.4136C26.7411 23.9393 25.703 23.2415 24.8319 22.361C23.9608 21.4805 23.2741 20.435 22.8121 19.2858C22.3278 18.1048 22.0825 16.8394 22.0905 15.563V15.5083C22.0828 14.231 22.3281 12.9648 22.8121 11.7827C23.2802 10.6364 23.9694 9.59338 24.8403 8.71318C25.7625 7.78616 26.862 7.0543 28.0731 6.56122C29.2842 6.06814 30.5821 5.82393 31.8896 5.84315C33.2449 5.82652 34.5895 6.08503 35.8421 6.60302C36.9932 7.08234 38.0375 7.78569 38.9144 8.67218L38.9526 8.71318C38.3643 9.48265 37.88 10.3263 37.5122 11.2224C37.4138 11.4657 37.3208 11.7117 37.2388 11.9604C37.0042 11.5501 36.7226 11.1685 36.3997 10.8233C35.8309 10.2189 35.1481 9.73302 34.3907 9.39379C33.2133 8.8568 31.897 8.70326 30.6277 8.95487C29.3584 9.20648 28.2002 9.85051 27.3167 10.796C26.7574 11.4061 26.3204 12.1177 26.0293 12.8925C25.7144 13.7103 25.5558 14.58 25.5619 15.4564V15.5083C25.5566 16.389 25.7151 17.2631 26.0293 18.0859C26.3159 18.8667 26.7563 19.5821 27.3244 20.1897C27.8925 20.7972 28.5768 21.2846 29.3367 21.6229C30.1406 21.9718 31.0077 22.1518 31.8842 22.1518C32.7606 22.1518 33.6277 21.9718 34.4317 21.6229C35.1819 21.291 35.8563 20.8092 36.4133 20.207C36.9714 19.5965 37.4074 18.8849 37.698 18.1105C38.0127 17.2935 38.1712 16.4248 38.1654 15.5493V15.4947C38.1577 14.2173 38.403 12.9511 38.887 11.7691C39.3551 10.6227 40.0443 9.57971 40.9152 8.69951C41.8371 7.77199 42.9364 7.0398 44.1476 6.54668C45.3588 6.05357 46.657 5.80964 47.9645 5.82948C49.3199 5.81286 50.6645 6.07136 51.917 6.58936C53.0614 7.0653 54.0991 7.76536 54.9689 8.64834C55.8388 9.53131 56.5232 10.5794 56.9819 11.7308C57.4663 12.9128 57.7115 14.179 57.7035 15.4564V15.5083C57.7078 16.547 57.5454 17.5797 57.2224 18.5669C56.9041 19.5338 56.4254 20.4402 55.8066 21.2484L57.944 23.0661L55.8339 25.414L53.5925 23.4132C52.7923 23.9812 51.909 24.4219 50.974 24.7197C48.6662 25.4162 46.1903 25.3083 43.952 24.4136C42.8036 23.9337 41.7621 23.2303 40.8879 22.3445L40.8469 22.3035C41.4346 21.5346 41.9189 20.6919 42.2873 19.797C42.3885 19.551 42.4787 19.305 42.5607 19.0535C43.2143 20.1927 44.2152 21.0931 45.417 21.6229C46.2185 21.9833 47.0885 22.1661 47.9673 22.1586Z" fill="#334155"/>
  <path fill-rule="evenodd" clip-rule="evenodd" d="M60.487 35.194L59.0083 32.939H59.7627L60.8068 34.579L61.8591 32.939H62.6108L61.1293 35.1776V36.6645H60.4679L60.487 35.194Z" fill="#334155"/>
  <path d="M54.1969 36.7288C53.9275 36.7319 53.66 36.6817 53.41 36.5811C53.1822 36.4919 52.9756 36.3561 52.8033 36.1824C52.6311 36.0087 52.497 35.801 52.4096 35.5725C52.3035 35.3291 52.2459 35.0672 52.2401 34.8017C52.2382 34.5487 52.2865 34.2979 52.3822 34.0637C52.4733 33.8344 52.6089 33.6253 52.7813 33.4487C52.9551 33.2694 53.1633 33.1271 53.3936 33.0305C53.6376 32.9247 53.9012 32.8716 54.1671 32.8747C54.3155 32.8743 54.4636 32.8862 54.6099 32.9102C54.7369 32.9304 54.8614 32.9633 54.9817 33.0086C55.0933 33.0517 55.2011 33.1038 55.3042 33.1644C55.408 33.2288 55.5067 33.301 55.5994 33.3804L55.1839 33.8751C55.1142 33.8163 55.0412 33.7616 54.9653 33.7111C54.8908 33.6623 54.8121 33.6202 54.7302 33.5854C54.6419 33.5502 54.5503 33.5236 54.4569 33.5061C54.3506 33.4857 54.2426 33.4757 54.1343 33.476C53.9698 33.4753 53.8072 33.5118 53.6587 33.5826C53.5133 33.6518 53.3832 33.7494 53.2761 33.8696C53.1645 33.9914 53.0773 34.1333 53.0191 34.2878C52.9564 34.449 52.9249 34.6206 52.9262 34.7935C52.9229 34.9797 52.9534 35.1649 53.0164 35.3402C53.0718 35.4969 53.1593 35.6402 53.2733 35.7611C53.3913 35.8851 53.5341 35.983 53.6922 36.0485C53.8504 36.1139 54.0206 36.1455 54.1917 36.1411C54.3597 36.1427 54.5268 36.1169 54.6865 36.0645C54.8308 36.0176 54.9665 35.9474 55.0883 35.8568V35.1571H54.1535V34.5831H55.7388V36.1493C55.642 36.2309 55.5397 36.3058 55.4327 36.3734C55.3177 36.4451 55.197 36.5072 55.0719 36.5593C54.9366 36.6132 54.7966 36.6544 54.6537 36.6823C54.5035 36.7139 54.3504 36.7295 54.1969 36.7288Z" fill="#334155"/>
  <path fill-rule="evenodd" clip-rule="evenodd" d="M33.9987 36.7151C33.7289 36.7188 33.461 36.6677 33.2115 36.5647C32.9834 36.4702 32.7765 36.331 32.6028 36.1555C32.4292 35.98 32.2923 35.7715 32.2002 35.5424C32.1035 35.3066 32.0542 35.0539 32.0553 34.799C32.0539 34.5449 32.1032 34.2931 32.2002 34.0582C32.3924 33.5938 32.7596 33.2236 33.2225 33.0277C33.468 32.9241 33.7322 32.872 33.9987 32.8747C34.2688 32.8718 34.5366 32.9239 34.7859 33.0277C35.0157 33.1227 35.224 33.2631 35.3982 33.4405C35.5696 33.6158 35.7051 33.8228 35.7973 34.05C35.8933 34.2851 35.9417 34.5369 35.9394 34.7908C35.9438 35.0435 35.8977 35.2945 35.8038 35.5292C35.71 35.7639 35.5702 35.9775 35.3928 36.1574C35.2092 36.3425 34.9901 36.4885 34.7487 36.5867C34.5072 36.6848 34.2484 36.7332 33.9878 36.7287L33.9987 36.7151ZM33.9983 36.0951C33.8159 36.0977 33.6348 36.0631 33.4661 35.9935C33.3119 35.9296 33.172 35.8355 33.0546 35.7169C32.9372 35.5982 32.8447 35.4573 32.7824 35.3024C32.717 35.143 32.6838 34.9722 32.6845 34.7998C32.6836 34.6281 32.7169 34.4578 32.7824 34.2991C32.9124 33.9851 33.1606 33.7349 33.4735 33.6025C33.6395 33.5324 33.8181 33.4972 33.9983 33.499C34.1809 33.497 34.3619 33.5322 34.5305 33.6025C34.6858 33.6667 34.8266 33.7616 34.9444 33.8815C35.0602 34 35.1519 34.1399 35.2142 34.2935C35.2791 34.4524 35.3118 34.6227 35.3102 34.7943C35.3132 34.9651 35.282 35.1348 35.2186 35.2935C35.1551 35.4521 35.0606 35.5965 34.9407 35.7182C34.8166 35.8433 34.6685 35.942 34.5053 36.0084C34.342 36.0747 34.1671 36.1074 33.9909 36.1044L33.9983 36.0951Z" fill="#334155"/>
  <path fill-rule="evenodd" clip-rule="evenodd" d="M47.0297 36.7151C46.7598 36.7188 46.4919 36.6677 46.2424 36.5647C46.0143 36.4702 45.8074 36.331 45.6337 36.1555C45.4601 35.98 45.3232 35.7715 45.2311 35.5424C45.1344 35.3066 45.0851 35.0539 45.0862 34.799C45.0849 34.5449 45.1341 34.2931 45.2311 34.0582C45.4233 33.5938 45.7905 33.2236 46.2534 33.0277C46.4989 32.9241 46.7631 32.872 47.0297 32.8747C47.2997 32.8718 47.5676 32.9239 47.8169 33.0277C48.0466 33.1227 48.2549 33.2631 48.4291 33.4405C48.6005 33.6158 48.7361 33.8228 48.8282 34.05C48.9243 34.2851 48.9726 34.5369 48.9703 34.7908C48.9747 35.0435 48.9286 35.2945 48.8348 35.5292C48.7409 35.7639 48.6011 35.9775 48.4237 36.1574C48.2401 36.3425 48.021 36.4885 47.7796 36.5867C47.5381 36.6848 47.2793 36.7332 47.0187 36.7287L47.0297 36.7151ZM47.0292 36.0951C46.8468 36.0977 46.6657 36.0631 46.4971 35.9935C46.3429 35.9296 46.203 35.8355 46.0856 35.7169C45.9682 35.5982 45.8756 35.4573 45.8134 35.3024C45.748 35.143 45.7147 34.9722 45.7154 34.7998C45.7145 34.6281 45.7478 34.4578 45.8134 34.2991C45.9433 33.9851 46.1915 33.7349 46.5044 33.6025C46.6704 33.5324 46.8491 33.4972 47.0292 33.499C47.2118 33.497 47.3928 33.5322 47.5614 33.6025C47.7167 33.6667 47.8575 33.7616 47.9753 33.8815C48.0912 34 48.1828 34.1399 48.2451 34.2935C48.31 34.4524 48.3427 34.6227 48.3412 34.7943C48.3441 34.9651 48.313 35.1348 48.2495 35.2935C48.1861 35.4521 48.0916 35.5965 47.9716 35.7182C47.8475 35.8433 47.6994 35.942 47.5362 36.0084C47.373 36.0747 47.198 36.1074 47.0218 36.1044L47.0292 36.0951Z" fill="#334155"/>
  <path d="M39.8569 32.939H39.2091V36.6645H41.8168V36.0741H39.8569V32.939Z" fill="#334155"/>
  <path d="M28.1353 35.5138L26.1454 32.939H25.5359V36.6645H26.1892V34.0132L28.2392 36.6645H28.7859V32.939H28.1353V35.5138Z" fill="#334155"/>
  <path d="M19.831 32.939H19.1805V36.6645H19.8283V35.0929H21.6159V36.6645H22.2664V32.939H21.6186V34.486H19.831V32.939Z" fill="#334155"/>
  <path d="M13.6789 36.5866C13.9139 36.6806 14.1656 36.7256 14.4186 36.7189L14.3995 36.7162C14.5593 36.7183 14.7188 36.7027 14.8751 36.6697C15.012 36.6421 15.1451 36.5981 15.2714 36.5385C15.3903 36.4794 15.5037 36.4099 15.6104 36.3308C15.7177 36.2478 15.8183 36.1564 15.911 36.0574L15.4901 35.631C15.3443 35.7684 15.1817 35.8869 15.0063 35.9836C14.8252 36.0752 14.6242 36.1202 14.4214 36.1148C14.2509 36.1158 14.0823 36.0804 13.9266 36.011C13.7796 35.9465 13.6468 35.8536 13.5357 35.7376C13.4247 35.614 13.3384 35.4702 13.2815 35.314C13.2209 35.1495 13.1904 34.9754 13.1913 34.8001C13.1903 34.6257 13.2209 34.4525 13.2815 34.2889C13.3368 34.1351 13.4223 33.9939 13.5331 33.8737C13.644 33.7535 13.7777 33.6568 13.9266 33.5892C14.0823 33.5198 14.2509 33.4844 14.4214 33.4853C14.6184 33.4825 14.8132 33.5266 14.9899 33.6138C15.1628 33.7026 15.3221 33.8158 15.4628 33.95L15.8837 33.4662C15.7989 33.3808 15.7075 33.3022 15.6104 33.2311C15.5083 33.1595 15.3993 33.0981 15.2851 33.048C15.1615 32.9937 15.0322 32.9534 14.8997 32.9277C14.7468 32.8969 14.591 32.8822 14.435 32.884C14.1676 32.8811 13.9025 32.9332 13.656 33.0371C13.429 33.1339 13.2234 33.2745 13.0508 33.4508C12.8782 33.6272 12.7421 33.8358 12.6501 34.0648C12.5541 34.3018 12.5058 34.5554 12.508 34.811C12.5055 35.0687 12.5548 35.3244 12.6529 35.5627C12.745 35.7899 12.8806 35.9969 13.0519 36.1722C13.2305 36.3516 13.4438 36.4926 13.6789 36.5866Z" fill="#334155"/>
  <path d="M9.21112 32.9404H6.45316V36.6632H9.23845V36.0728H7.1037V35.0751H8.97058V34.4875H7.1037V33.5308H9.21112V32.9404Z" fill="#334155"/>
  <path d="M0.160645 33.5458H1.34146V36.6645H2.00293V33.5458H3.18374V32.939H0.160645V33.5458Z" fill="#334155"/>
  <path d="M83.5495 26.1957C81.756 26.1957 80.1012 25.7796 78.585 24.9476C77.0873 24.0971 75.8947 22.9229 75.0072 21.4253C74.1381 19.9091 73.7036 18.208 73.7036 16.322C73.7036 14.436 74.1381 12.7442 75.0072 11.2465C75.8947 9.74881 77.0873 8.58394 78.585 7.75189C80.1012 6.90134 81.756 6.47607 83.5495 6.47607C85.3616 6.47607 87.0164 6.90134 88.5141 7.75189C90.0303 8.58394 91.2229 9.74881 92.0919 11.2465C92.961 12.7442 93.3955 14.436 93.3955 16.322C93.3955 18.208 92.961 19.9091 92.0919 21.4253C91.2229 22.9229 90.0303 24.0971 88.5141 24.9476C87.0164 25.7796 85.3616 26.1957 83.5495 26.1957ZM83.5495 23.4499C84.8254 23.4499 85.9625 23.1633 86.961 22.5901C87.9594 21.9984 88.736 21.1664 89.2907 20.094C89.8639 19.0031 90.1505 17.7457 90.1505 16.322C90.1505 14.8983 89.8639 13.6502 89.2907 12.5778C88.736 11.5054 87.9594 10.6826 86.961 10.1094C85.9625 9.53617 84.8254 9.24958 83.5495 9.24958C82.2737 9.24958 81.1366 9.53617 80.1381 10.1094C79.1397 10.6826 78.3539 11.5054 77.7807 12.5778C77.226 13.6502 76.9486 14.8983 76.9486 16.322C76.9486 17.7457 77.226 19.0031 77.7807 20.094C78.3539 21.1664 79.1397 21.9984 80.1381 22.5901C81.1366 23.1633 82.2737 23.4499 83.5495 23.4499Z" fill="#334155"/>
  <path d="M112.69 26.0015H109.528L100.015 11.6071V26.0015H96.8535V6.69795H100.015L109.528 21.0647V6.69795H112.69V26.0015Z" fill="#334155"/>
  <path d="M120.351 9.27731V14.9353H127.007V17.5146H120.351V23.4222H127.839V26.0015H117.189V6.69795H127.839V9.27731H120.351Z" fill="#334155"/>
</svg>