<svg width="50" height="24" viewBox="0 0 50 24" fill="none" xmlns="http://www.w3.org/2000/svg">
<path d="M16.501 23.8771L8.14291 11.7234H11.2157C12.6292 11.7234 13.7815 10.5711 13.7815 9.1575C13.7815 7.74393 12.6292 6.59156 11.2157 6.59156H6.6065V19.6056H4.40942V4.39438H11.2157C13.843 4.39438 15.9786 6.5301 15.9786 9.1575C15.9786 11.4315 14.3807 13.3368 12.2451 13.7977L18.314 22.6172L16.501 23.8771Z" fill="#1F2B48"/>
<path d="M39.94 13.1869L38.47 14.8197L43.7675 19.5899L45.2375 17.9572L39.94 13.1869Z" fill="#1F2B48"/>
<path d="M37.6421 4.39438C33.4477 4.39438 30.0522 7.80539 30.0522 11.9846C30.0522 14.9654 27.6247 17.3777 24.6594 17.3777C21.6788 17.3777 19.2666 14.9501 19.2666 11.9846C19.2666 9.00385 21.6942 6.59156 24.6594 6.59156C26.3341 6.59156 27.9013 7.37517 28.9307 8.68119L30.3903 7.03714C28.9614 5.37773 26.8565 4.39438 24.6287 4.39438C20.4343 4.39438 17.0388 7.80539 17.0388 11.9846C17.0388 16.1793 20.4497 19.5749 24.6287 19.5749C28.8231 19.5749 32.2186 16.1639 32.2186 11.9846C32.2186 9.00385 34.6461 6.59156 37.6114 6.59156C40.5767 6.59156 43.0042 9.01922 43.0042 11.9846C43.0042 14.9654 40.5767 17.3777 37.6114 17.3777C35.9367 17.3777 34.3542 16.5941 33.3402 15.2727L31.8498 16.9168C33.2787 18.5916 35.3836 19.5749 37.6114 19.5749C41.8058 19.5749 45.2013 16.1639 45.2013 11.9846C45.232 7.80539 41.8212 4.39438 37.6421 4.39438Z" fill="#1F2B48"/>
<path d="M49.6569 0H0V24H13.9199L12.3989 21.8028H2.19707V2.19718H47.4598V21.8028H15.0722L16.5779 24H49.6569V0Z" fill="#1F2B48"/>
</svg>
